<?xml version="1.0" encoding="iso-8859-1"?>
<!-- Generator: Adobe Illustrator 19.0.0, SVG Export Plug-In . SVG Version: 6.00 Build 0)  -->
<svg version="1.1" id="Capa_1" xmlns="http://www.w3.org/2000/svg" xmlns:xlink="http://www.w3.org/1999/xlink" x="0px"
     y="0px"
	 fill="#99b1c6"
     viewBox="0 0 395.494 395.494" style="enable-background:new 0 0 395.494 395.494;" xml:space="preserve">
<path style="fill:#edeef0;"  d="M65.829,365.975c-2.09,0.522-4.702,0.522-6.792,0.522c-24.033,0-43.363-19.331-43.363-43.363v-87.249
	c0-24.033,19.331-43.363,43.363-43.363H102.4v130.612c0,12.016-4.702,22.988-12.539,30.824
	C83.592,360.229,75.233,364.408,65.829,365.975z"/>
    <path d="M379.82,28.996v282.645c0,29.78-24.555,54.335-54.335,54.335H65.829
	c9.404-1.567,17.763-5.747,24.033-12.016c7.837-7.837,12.539-18.808,12.539-30.824V192.522V28.996H379.82z"/>
    <g>
	<path style="fill:#edeef0;" d="M271.151,142.89h-98.22c-8.882,0-15.673-6.792-15.673-15.673s6.792-15.673,15.673-15.673h98.22
		c8.882,0,15.673,6.792,15.673,15.673S280.033,142.89,271.151,142.89z"/>
        <path style="fill:#edeef0;" d="M308.767,218.645H172.931c-8.882,0-15.673-6.792-15.673-15.673s6.792-15.673,15.673-15.673h135.837
		c8.882,0,15.673,6.792,15.673,15.673S317.649,218.645,308.767,218.645z"/>
        <path  d="M59.037,382.171C26.645,382.171,0,355.527,0,323.135v-87.249c0-32.392,26.645-59.037,59.037-59.037
		h27.69V28.996c0-8.882,6.792-15.673,15.673-15.673h277.42c8.882,0,15.673,6.792,15.673,15.673v282.645
		c0,38.661-31.347,70.008-70.008,70.008H67.396C64.261,382.171,61.649,382.171,59.037,382.171z M59.037,208.196
		c-15.151,0-27.69,12.539-27.69,27.69v87.249c0,15.151,12.539,27.69,27.69,27.69v-0.522h5.224
		c5.747-1.045,10.449-3.657,14.629-7.314c5.224-5.224,7.837-12.016,7.837-19.853V208.196H59.037z M111.804,350.302h213.682
		c20.898,0,38.661-17.763,38.661-38.661V44.669H118.073v278.465C118.073,332.539,115.984,341.943,111.804,350.302z"/>
        <path style="fill:#edeef0;" d="M271.151,289.698h-98.22c-8.882,0-15.673-6.792-15.673-15.673s6.792-15.673,15.673-15.673h98.22
		c8.882,0,15.673,6.792,15.673,15.673C286.824,282.906,280.033,289.698,271.151,289.698z"/>
</g>
    <g>
</g>
    <g>
</g>
    <g>
</g>
    <g>
</g>
    <g>
</g>
    <g>
</g>
    <g>
</g>
    <g>
</g>
    <g>
</g>
    <g>
</g>
    <g>
</g>
    <g>
</g>
    <g>
</g>
    <g>
</g>
    <g>
</g>
</svg>
