<svg id="Layer_1" enable-background="new 0 0 511.449 511.449" height="512" viewBox="0 0 511.449 511.449" width="512"
     xmlns="http://www.w3.org/2000/svg" fill="#597da3">
    <path d="m436.508 74.941c-99.912-99.914-261.64-99.93-361.567 0-99.913 99.913-99.928 261.639 0 361.566 99.912 99.914 261.64 99.93 361.567 0 99.913-99.912 99.928-261.638 0-361.566zm-255.45 265.784c-46.869 0-85-38.131-85-85s38.131-85 85-85h37.576l-12.917-21.528c-5.967-9.945-2.742-22.845 7.203-28.812 9.946-5.97 22.845-2.742 28.812 7.202 35.023 58.371 34.993 56.35 34.993 64.138 0 8.831-5.653 17.086-14.521 19.97-4.425 1.436-.264 1.03-81.146 1.03-23.71 0-43 19.29-43 43s19.29 43 43 43c11.598 0 21 9.402 21 21s-9.402 21-21 21zm149.333 0h-37.576l12.917 21.528c5.967 9.945 2.742 22.845-7.203 28.812-9.939 5.966-22.843 2.746-28.812-7.202-35.406-59.01-35.147-56.566-34.969-64.605.172-7.395 4.146-13.918 10.172-17.541 6.768-4.051 7.766-2.992 85.471-2.992 23.71 0 43-19.29 43-43s-19.29-43-43-43c-11.598 0-21-9.402-21-21s9.402-21 21-21c46.869 0 85 38.131 85 85s-38.131 85-85 85z"/>
</svg>
