<?xml version="1.0" encoding="iso-8859-1"?>
<!-- Generator: Adobe Illustrator 17.1.0, SVG Export Plug-In . SVG Version: 6.00 Build 0)  -->
<!DOCTYPE svg PUBLIC "-//W3C//DTD SVG 1.1//EN" "http://www.w3.org/Graphics/SVG/1.1/DTD/svg11.dtd">
<svg version="1.1" id="Capa_1" xmlns="http://www.w3.org/2000/svg" xmlns:xlink="http://www.w3.org/1999/xlink" x="0px"
     y="0px"
     viewBox="0 0 324.538 324.538" style="enable-background:new 0 0 324.538 324.538;" xml:space="preserve">
<path style="fill:#597da3;" d="M299.535,204.288c-2.929-2.928-7.678-2.928-10.606,0c-2.929,2.93-2.929,7.678,0,10.607l10.003,10.003
	h-7.479c-43.159,0-83.733-16.807-114.25-47.324l-10.027-10.027l20.584-20.584c29.781-29.782,69.143-46.497,111.135-47.286
	l-9.965,9.965c-2.929,2.93-2.929,7.678,0,10.607c1.464,1.464,3.384,2.196,5.303,2.196s3.839-0.732,5.303-2.196l22.807-22.807
	c2.929-2.93,2.929-7.678,0-10.607l-22.807-22.807c-2.929-2.928-7.678-2.928-10.606,0c-2.929,2.93-2.929,7.678,0,10.607l10.04,10.04
	c-46.028,0.772-89.185,19.048-121.817,51.68l-20.584,20.584l-20.584-20.584c-33.35-33.35-77.691-51.717-124.857-51.717h-0.708
	c-4.142,0-7.5,3.357-7.5,7.5s3.358,7.5,7.5,7.5h0.708c43.159,0,83.734,16.807,114.25,47.324l20.584,20.584l-10.027,10.027
	c-30.517,30.518-71.092,47.324-114.25,47.324H7.5c-4.142,0-7.5,3.357-7.5,7.5s3.358,7.5,7.5,7.5h14.183
	c47.166,0,91.507-18.367,124.857-51.717l10.028-10.028l10.028,10.028c33.35,33.35,77.691,51.717,124.857,51.717h7.479
	l-10.003,10.003c-2.929,2.93-2.929,7.678,0,10.607c1.464,1.464,3.384,2.196,5.303,2.196s3.839-0.732,5.303-2.196l22.807-22.807
	c2.929-2.93,2.929-7.678,0-10.607L299.535,204.288z"/>
    <g>
</g>
    <g>
</g>
    <g>
</g>
    <g>
</g>
    <g>
</g>
    <g>
</g>
    <g>
</g>
    <g>
</g>
    <g>
</g>
    <g>
</g>
    <g>
</g>
    <g>
</g>
    <g>
</g>
    <g>
</g>
    <g>
</g>
</svg>
